<?xml version="1.0" encoding="utf-8" standalone="no"?>
<!DOCTYPE svg PUBLIC "-//W3C//DTD SVG 1.1//EN"
  "http://www.w3.org/Graphics/SVG/1.1/DTD/svg11.dtd">
<svg xmlns:xlink="http://www.w3.org/1999/xlink" width="394.423125pt" height="307.788562pt" viewBox="0 0 394.423125 307.788562" xmlns="http://www.w3.org/2000/svg" version="1.1">
 <metadata>
  <rdf:RDF xmlns:dc="http://purl.org/dc/elements/1.1/" xmlns:cc="http://creativecommons.org/ns#" xmlns:rdf="http://www.w3.org/1999/02/22-rdf-syntax-ns#">
   <cc:Work>
    <dc:type rdf:resource="http://purl.org/dc/dcmitype/StillImage"/>
    <dc:date>2023-09-08T00:38:18.418613</dc:date>
    <dc:format>image/svg+xml</dc:format>
    <dc:creator>
     <cc:Agent>
      <dc:title>Matplotlib v3.7.2, https://matplotlib.org/</dc:title>
     </cc:Agent>
    </dc:creator>
   </cc:Work>
  </rdf:RDF>
 </metadata>
 <defs>
  <style type="text/css">*{stroke-linejoin: round; stroke-linecap: butt}</style>
 </defs>
 <g id="figure_1">
  <g id="patch_1">
   <path d="M 0 307.788562 
L 394.423125 307.788562 
L 394.423125 0 
L 0 0 
z
" style="fill: #ffffff"/>
  </g>
  <g id="axes_1">
   <g id="patch_2">
    <path d="M 30.103125 283.910437 
L 387.223125 283.910437 
L 387.223125 17.798437 
L 30.103125 17.798437 
z
" style="fill: #ffffff"/>
   </g>
   <g id="matplotlib.axis_1">
    <g id="xtick_1">
     <g id="line2d_1">
      <defs>
       <path id="m4e297de786" d="M 0 0 
L 0 3.5 
" style="stroke: #000000; stroke-width: 0.8"/>
      </defs>
      <g>
       <use xlink:href="#m4e297de786" x="46.335852" y="283.910437" style="stroke: #000000; stroke-width: 0.8"/>
      </g>
     </g>
     <g id="text_1">
      <!-- 0 -->
      <g transform="translate(43.154602 298.508875) scale(0.1 -0.1)">
       <defs>
        <path id="DejaVuSans-30" d="M 2034 4250 
Q 1547 4250 1301 3770 
Q 1056 3291 1056 2328 
Q 1056 1369 1301 889 
Q 1547 409 2034 409 
Q 2525 409 2770 889 
Q 3016 1369 3016 2328 
Q 3016 3291 2770 3770 
Q 2525 4250 2034 4250 
z
M 2034 4750 
Q 2819 4750 3233 4129 
Q 3647 3509 3647 2328 
Q 3647 1150 3233 529 
Q 2819 -91 2034 -91 
Q 1250 -91 836 529 
Q 422 1150 422 2328 
Q 422 3509 836 4129 
Q 1250 4750 2034 4750 
z
" transform="scale(0.015625)"/>
       </defs>
       <use xlink:href="#DejaVuSans-30"/>
      </g>
     </g>
    </g>
    <g id="xtick_2">
     <g id="line2d_2">
      <g>
       <use xlink:href="#m4e297de786" x="115.632447" y="283.910437" style="stroke: #000000; stroke-width: 0.8"/>
      </g>
     </g>
     <g id="text_2">
      <!-- 200 -->
      <g transform="translate(106.088697 298.508875) scale(0.1 -0.1)">
       <defs>
        <path id="DejaVuSans-32" d="M 1228 531 
L 3431 531 
L 3431 0 
L 469 0 
L 469 531 
Q 828 903 1448 1529 
Q 2069 2156 2228 2338 
Q 2531 2678 2651 2914 
Q 2772 3150 2772 3378 
Q 2772 3750 2511 3984 
Q 2250 4219 1831 4219 
Q 1534 4219 1204 4116 
Q 875 4013 500 3803 
L 500 4441 
Q 881 4594 1212 4672 
Q 1544 4750 1819 4750 
Q 2544 4750 2975 4387 
Q 3406 4025 3406 3419 
Q 3406 3131 3298 2873 
Q 3191 2616 2906 2266 
Q 2828 2175 2409 1742 
Q 1991 1309 1228 531 
z
" transform="scale(0.015625)"/>
       </defs>
       <use xlink:href="#DejaVuSans-32"/>
       <use xlink:href="#DejaVuSans-30" x="63.623047"/>
       <use xlink:href="#DejaVuSans-30" x="127.246094"/>
      </g>
     </g>
    </g>
    <g id="xtick_3">
     <g id="line2d_3">
      <g>
       <use xlink:href="#m4e297de786" x="184.929041" y="283.910437" style="stroke: #000000; stroke-width: 0.8"/>
      </g>
     </g>
     <g id="text_3">
      <!-- 400 -->
      <g transform="translate(175.385291 298.508875) scale(0.1 -0.1)">
       <defs>
        <path id="DejaVuSans-34" d="M 2419 4116 
L 825 1625 
L 2419 1625 
L 2419 4116 
z
M 2253 4666 
L 3047 4666 
L 3047 1625 
L 3713 1625 
L 3713 1100 
L 3047 1100 
L 3047 0 
L 2419 0 
L 2419 1100 
L 313 1100 
L 313 1709 
L 2253 4666 
z
" transform="scale(0.015625)"/>
       </defs>
       <use xlink:href="#DejaVuSans-34"/>
       <use xlink:href="#DejaVuSans-30" x="63.623047"/>
       <use xlink:href="#DejaVuSans-30" x="127.246094"/>
      </g>
     </g>
    </g>
    <g id="xtick_4">
     <g id="line2d_4">
      <g>
       <use xlink:href="#m4e297de786" x="254.225636" y="283.910437" style="stroke: #000000; stroke-width: 0.8"/>
      </g>
     </g>
     <g id="text_4">
      <!-- 600 -->
      <g transform="translate(244.681886 298.508875) scale(0.1 -0.1)">
       <defs>
        <path id="DejaVuSans-36" d="M 2113 2584 
Q 1688 2584 1439 2293 
Q 1191 2003 1191 1497 
Q 1191 994 1439 701 
Q 1688 409 2113 409 
Q 2538 409 2786 701 
Q 3034 994 3034 1497 
Q 3034 2003 2786 2293 
Q 2538 2584 2113 2584 
z
M 3366 4563 
L 3366 3988 
Q 3128 4100 2886 4159 
Q 2644 4219 2406 4219 
Q 1781 4219 1451 3797 
Q 1122 3375 1075 2522 
Q 1259 2794 1537 2939 
Q 1816 3084 2150 3084 
Q 2853 3084 3261 2657 
Q 3669 2231 3669 1497 
Q 3669 778 3244 343 
Q 2819 -91 2113 -91 
Q 1303 -91 875 529 
Q 447 1150 447 2328 
Q 447 3434 972 4092 
Q 1497 4750 2381 4750 
Q 2619 4750 2861 4703 
Q 3103 4656 3366 4563 
z
" transform="scale(0.015625)"/>
       </defs>
       <use xlink:href="#DejaVuSans-36"/>
       <use xlink:href="#DejaVuSans-30" x="63.623047"/>
       <use xlink:href="#DejaVuSans-30" x="127.246094"/>
      </g>
     </g>
    </g>
    <g id="xtick_5">
     <g id="line2d_5">
      <g>
       <use xlink:href="#m4e297de786" x="323.52223" y="283.910437" style="stroke: #000000; stroke-width: 0.8"/>
      </g>
     </g>
     <g id="text_5">
      <!-- 800 -->
      <g transform="translate(313.97848 298.508875) scale(0.1 -0.1)">
       <defs>
        <path id="DejaVuSans-38" d="M 2034 2216 
Q 1584 2216 1326 1975 
Q 1069 1734 1069 1313 
Q 1069 891 1326 650 
Q 1584 409 2034 409 
Q 2484 409 2743 651 
Q 3003 894 3003 1313 
Q 3003 1734 2745 1975 
Q 2488 2216 2034 2216 
z
M 1403 2484 
Q 997 2584 770 2862 
Q 544 3141 544 3541 
Q 544 4100 942 4425 
Q 1341 4750 2034 4750 
Q 2731 4750 3128 4425 
Q 3525 4100 3525 3541 
Q 3525 3141 3298 2862 
Q 3072 2584 2669 2484 
Q 3125 2378 3379 2068 
Q 3634 1759 3634 1313 
Q 3634 634 3220 271 
Q 2806 -91 2034 -91 
Q 1263 -91 848 271 
Q 434 634 434 1313 
Q 434 1759 690 2068 
Q 947 2378 1403 2484 
z
M 1172 3481 
Q 1172 3119 1398 2916 
Q 1625 2713 2034 2713 
Q 2441 2713 2670 2916 
Q 2900 3119 2900 3481 
Q 2900 3844 2670 4047 
Q 2441 4250 2034 4250 
Q 1625 4250 1398 4047 
Q 1172 3844 1172 3481 
z
" transform="scale(0.015625)"/>
       </defs>
       <use xlink:href="#DejaVuSans-38"/>
       <use xlink:href="#DejaVuSans-30" x="63.623047"/>
       <use xlink:href="#DejaVuSans-30" x="127.246094"/>
      </g>
     </g>
    </g>
   </g>
   <g id="matplotlib.axis_2">
    <g id="ytick_1">
     <g id="line2d_6">
      <defs>
       <path id="m426cc8c4ad" d="M 0 0 
L -3.5 0 
" style="stroke: #000000; stroke-width: 0.8"/>
      </defs>
      <g>
       <use xlink:href="#m426cc8c4ad" x="30.103125" y="274.765021" style="stroke: #000000; stroke-width: 0.8"/>
      </g>
     </g>
     <g id="text_6">
      <!-- 0.0 -->
      <g transform="translate(7.2 278.56424) scale(0.1 -0.1)">
       <defs>
        <path id="DejaVuSans-2e" d="M 684 794 
L 1344 794 
L 1344 0 
L 684 0 
L 684 794 
z
" transform="scale(0.015625)"/>
       </defs>
       <use xlink:href="#DejaVuSans-30"/>
       <use xlink:href="#DejaVuSans-2e" x="63.623047"/>
       <use xlink:href="#DejaVuSans-30" x="95.410156"/>
      </g>
     </g>
    </g>
    <g id="ytick_2">
     <g id="line2d_7">
      <g>
       <use xlink:href="#m426cc8c4ad" x="30.103125" y="239.989384" style="stroke: #000000; stroke-width: 0.8"/>
      </g>
     </g>
     <g id="text_7">
      <!-- 0.5 -->
      <g transform="translate(7.2 243.788602) scale(0.1 -0.1)">
       <defs>
        <path id="DejaVuSans-35" d="M 691 4666 
L 3169 4666 
L 3169 4134 
L 1269 4134 
L 1269 2991 
Q 1406 3038 1543 3061 
Q 1681 3084 1819 3084 
Q 2600 3084 3056 2656 
Q 3513 2228 3513 1497 
Q 3513 744 3044 326 
Q 2575 -91 1722 -91 
Q 1428 -91 1123 -41 
Q 819 9 494 109 
L 494 744 
Q 775 591 1075 516 
Q 1375 441 1709 441 
Q 2250 441 2565 725 
Q 2881 1009 2881 1497 
Q 2881 1984 2565 2268 
Q 2250 2553 1709 2553 
Q 1456 2553 1204 2497 
Q 953 2441 691 2322 
L 691 4666 
z
" transform="scale(0.015625)"/>
       </defs>
       <use xlink:href="#DejaVuSans-30"/>
       <use xlink:href="#DejaVuSans-2e" x="63.623047"/>
       <use xlink:href="#DejaVuSans-35" x="95.410156"/>
      </g>
     </g>
    </g>
    <g id="ytick_3">
     <g id="line2d_8">
      <g>
       <use xlink:href="#m426cc8c4ad" x="30.103125" y="205.213746" style="stroke: #000000; stroke-width: 0.8"/>
      </g>
     </g>
     <g id="text_8">
      <!-- 1.0 -->
      <g transform="translate(7.2 209.012965) scale(0.1 -0.1)">
       <defs>
        <path id="DejaVuSans-31" d="M 794 531 
L 1825 531 
L 1825 4091 
L 703 3866 
L 703 4441 
L 1819 4666 
L 2450 4666 
L 2450 531 
L 3481 531 
L 3481 0 
L 794 0 
L 794 531 
z
" transform="scale(0.015625)"/>
       </defs>
       <use xlink:href="#DejaVuSans-31"/>
       <use xlink:href="#DejaVuSans-2e" x="63.623047"/>
       <use xlink:href="#DejaVuSans-30" x="95.410156"/>
      </g>
     </g>
    </g>
    <g id="ytick_4">
     <g id="line2d_9">
      <g>
       <use xlink:href="#m426cc8c4ad" x="30.103125" y="170.438109" style="stroke: #000000; stroke-width: 0.8"/>
      </g>
     </g>
     <g id="text_9">
      <!-- 1.5 -->
      <g transform="translate(7.2 174.237328) scale(0.1 -0.1)">
       <use xlink:href="#DejaVuSans-31"/>
       <use xlink:href="#DejaVuSans-2e" x="63.623047"/>
       <use xlink:href="#DejaVuSans-35" x="95.410156"/>
      </g>
     </g>
    </g>
    <g id="ytick_5">
     <g id="line2d_10">
      <g>
       <use xlink:href="#m426cc8c4ad" x="30.103125" y="135.662472" style="stroke: #000000; stroke-width: 0.8"/>
      </g>
     </g>
     <g id="text_10">
      <!-- 2.0 -->
      <g transform="translate(7.2 139.461691) scale(0.1 -0.1)">
       <use xlink:href="#DejaVuSans-32"/>
       <use xlink:href="#DejaVuSans-2e" x="63.623047"/>
       <use xlink:href="#DejaVuSans-30" x="95.410156"/>
      </g>
     </g>
    </g>
    <g id="ytick_6">
     <g id="line2d_11">
      <g>
       <use xlink:href="#m426cc8c4ad" x="30.103125" y="100.886835" style="stroke: #000000; stroke-width: 0.8"/>
      </g>
     </g>
     <g id="text_11">
      <!-- 2.5 -->
      <g transform="translate(7.2 104.686053) scale(0.1 -0.1)">
       <use xlink:href="#DejaVuSans-32"/>
       <use xlink:href="#DejaVuSans-2e" x="63.623047"/>
       <use xlink:href="#DejaVuSans-35" x="95.410156"/>
      </g>
     </g>
    </g>
    <g id="ytick_7">
     <g id="line2d_12">
      <g>
       <use xlink:href="#m426cc8c4ad" x="30.103125" y="66.111197" style="stroke: #000000; stroke-width: 0.8"/>
      </g>
     </g>
     <g id="text_12">
      <!-- 3.0 -->
      <g transform="translate(7.2 69.910416) scale(0.1 -0.1)">
       <defs>
        <path id="DejaVuSans-33" d="M 2597 2516 
Q 3050 2419 3304 2112 
Q 3559 1806 3559 1356 
Q 3559 666 3084 287 
Q 2609 -91 1734 -91 
Q 1441 -91 1130 -33 
Q 819 25 488 141 
L 488 750 
Q 750 597 1062 519 
Q 1375 441 1716 441 
Q 2309 441 2620 675 
Q 2931 909 2931 1356 
Q 2931 1769 2642 2001 
Q 2353 2234 1838 2234 
L 1294 2234 
L 1294 2753 
L 1863 2753 
Q 2328 2753 2575 2939 
Q 2822 3125 2822 3475 
Q 2822 3834 2567 4026 
Q 2313 4219 1838 4219 
Q 1578 4219 1281 4162 
Q 984 4106 628 3988 
L 628 4550 
Q 988 4650 1302 4700 
Q 1616 4750 1894 4750 
Q 2613 4750 3031 4423 
Q 3450 4097 3450 3541 
Q 3450 3153 3228 2886 
Q 3006 2619 2597 2516 
z
" transform="scale(0.015625)"/>
       </defs>
       <use xlink:href="#DejaVuSans-33"/>
       <use xlink:href="#DejaVuSans-2e" x="63.623047"/>
       <use xlink:href="#DejaVuSans-30" x="95.410156"/>
      </g>
     </g>
    </g>
    <g id="ytick_8">
     <g id="line2d_13">
      <g>
       <use xlink:href="#m426cc8c4ad" x="30.103125" y="31.33556" style="stroke: #000000; stroke-width: 0.8"/>
      </g>
     </g>
     <g id="text_13">
      <!-- 3.5 -->
      <g transform="translate(7.2 35.134779) scale(0.1 -0.1)">
       <use xlink:href="#DejaVuSans-33"/>
       <use xlink:href="#DejaVuSans-2e" x="63.623047"/>
       <use xlink:href="#DejaVuSans-35" x="95.410156"/>
      </g>
     </g>
    </g>
    <g id="text_14">
     <!-- 1e12 -->
     <g transform="translate(30.103125 14.798437) scale(0.1 -0.1)">
      <defs>
       <path id="DejaVuSans-65" d="M 3597 1894 
L 3597 1613 
L 953 1613 
Q 991 1019 1311 708 
Q 1631 397 2203 397 
Q 2534 397 2845 478 
Q 3156 559 3463 722 
L 3463 178 
Q 3153 47 2828 -22 
Q 2503 -91 2169 -91 
Q 1331 -91 842 396 
Q 353 884 353 1716 
Q 353 2575 817 3079 
Q 1281 3584 2069 3584 
Q 2775 3584 3186 3129 
Q 3597 2675 3597 1894 
z
M 3022 2063 
Q 3016 2534 2758 2815 
Q 2500 3097 2075 3097 
Q 1594 3097 1305 2825 
Q 1016 2553 972 2059 
L 3022 2063 
z
" transform="scale(0.015625)"/>
      </defs>
      <use xlink:href="#DejaVuSans-31"/>
      <use xlink:href="#DejaVuSans-65" x="63.623047"/>
      <use xlink:href="#DejaVuSans-31" x="125.146484"/>
      <use xlink:href="#DejaVuSans-32" x="188.769531"/>
     </g>
    </g>
   </g>
   <g id="line2d_14">
    <path d="M 46.335852 160.514698 
L 46.682335 161.253892 
L 47.028818 183.097254 
L 47.375301 117.726568 
L 47.721784 115.373851 
L 48.068267 131.972763 
L 48.41475 156.552662 
L 48.761233 190.86647 
L 49.107716 164.333152 
L 49.454199 201.844584 
L 49.800682 181.359706 
L 50.147165 104.667574 
L 50.493648 163.591635 
L 50.840131 120.09243 
L 51.186614 184.981231 
L 51.533097 160.757717 
L 51.87958 210.250827 
L 52.226063 194.040394 
L 52.919029 33.294634 
L 53.265512 102.884358 
L 53.611995 76.53815 
L 54.304961 207.832857 
L 54.651444 201.627515 
L 54.997927 175.962995 
L 55.34441 192.809108 
L 55.690893 186.74595 
L 56.037376 201.945425 
L 56.730341 147.801886 
L 57.076824 141.496865 
L 57.423307 167.707562 
L 57.76979 162.223364 
L 58.116273 176.49215 
L 58.462756 131.696538 
L 58.809239 174.683079 
L 59.155722 165.114358 
L 59.502205 211.85799 
L 59.848688 206.612618 
L 60.195171 198.808817 
L 60.541654 167.497667 
L 60.888137 157.025512 
L 61.23462 165.833879 
L 61.581103 152.157606 
L 61.927586 100.762685 
L 62.274069 220.6009 
L 62.620552 185.072811 
L 62.967035 187.924893 
L 63.313518 227.997139 
L 63.660001 211.838793 
L 64.006484 215.929627 
L 64.352967 204.755716 
L 64.69945 211.997681 
L 65.045933 186.850166 
L 65.392416 189.517341 
L 65.738899 112.09707 
L 66.085382 122.497345 
L 66.431865 174.822645 
L 67.124831 219.059603 
L 67.817797 197.295817 
L 68.16428 136.313331 
L 68.510763 167.284094 
L 68.857246 148.790527 
L 69.203728 180.947139 
L 69.550211 196.144935 
L 69.896694 203.417925 
L 70.243177 185.922717 
L 70.58966 146.523381 
L 70.936143 212.451748 
L 71.629109 134.749827 
L 71.975592 167.684943 
L 72.322075 188.171745 
L 72.668558 163.693142 
L 73.015041 219.713876 
L 73.361524 205.246852 
L 73.708007 168.084888 
L 74.05449 191.884832 
L 74.400973 198.591547 
L 74.747456 207.682838 
L 75.093939 176.783976 
L 75.786905 150.881606 
L 76.133388 206.418597 
L 76.479871 209.818617 
L 76.826354 211.1212 
L 77.172837 171.617962 
L 77.51932 195.491827 
L 77.865803 152.960955 
L 78.212286 157.010711 
L 78.558769 135.068836 
L 78.905252 73.800713 
L 79.251735 171.395625 
L 79.598218 158.824135 
L 79.944701 189.835831 
L 80.291184 191.21591 
L 80.637667 184.505685 
L 80.98415 188.134643 
L 81.330633 186.712607 
L 81.677115 206.146198 
L 82.023598 202.080089 
L 82.370081 228.810395 
L 82.716564 216.623483 
L 83.063047 231.123167 
L 83.40953 190.576846 
L 83.756013 214.855869 
L 84.102496 218.078278 
L 84.448979 215.333092 
L 84.795462 231.064129 
L 85.141945 223.566942 
L 85.488428 211.644319 
L 85.834911 213.252151 
L 86.181394 232.913239 
L 86.527877 228.072842 
L 86.87436 238.422971 
L 87.220843 219.724014 
L 87.567326 221.611181 
L 87.913809 229.121122 
L 88.260292 216.090055 
L 88.606775 213.824699 
L 88.953258 156.600465 
L 89.299741 182.858348 
L 89.646224 148.586184 
L 89.992707 198.67855 
L 90.33919 223.046963 
L 90.685673 224.801606 
L 91.032156 186.808944 
L 91.378639 217.276253 
L 91.725122 206.480398 
L 92.071605 124.716606 
L 92.418088 148.411659 
L 92.764571 142.79577 
L 93.457537 179.367925 
L 93.80402 215.817149 
L 94.150503 234.084518 
L 94.496985 199.850486 
L 94.843468 207.84066 
L 95.189951 218.866326 
L 95.536434 240.546375 
L 95.882917 209.490962 
L 96.2294 227.247377 
L 96.575883 149.219483 
L 96.922366 197.62325 
L 97.268849 202.984715 
L 97.615332 191.321435 
L 97.961815 214.216941 
L 98.654781 183.172136 
L 99.69423 232.123586 
L 100.040713 216.991479 
L 100.387196 187.5377 
L 100.733679 226.83151 
L 101.080162 230.252593 
L 101.426645 29.894437 
L 101.773128 72.617529 
L 102.119611 193.448738 
L 102.466094 146.037219 
L 102.812577 207.690024 
L 103.15906 206.391905 
L 103.505543 226.010623 
L 103.852026 231.604185 
L 104.544992 213.321394 
L 104.891475 217.184937 
L 105.237958 204.158095 
L 105.584441 217.520206 
L 105.930924 184.218189 
L 106.277407 216.704179 
L 106.62389 226.134733 
L 106.970373 211.837745 
L 107.316855 212.447644 
L 107.663338 218.183215 
L 108.009821 196.976573 
L 108.356304 216.575803 
L 108.702787 225.779663 
L 109.04927 225.789193 
L 109.395753 225.414453 
L 109.742236 198.626139 
L 110.088719 216.483085 
L 110.435202 164.457437 
L 110.781685 233.973951 
L 111.128168 167.406645 
L 111.474651 203.18752 
L 111.821134 204.910624 
L 112.167617 207.988495 
L 112.5141 199.422723 
L 112.860583 222.848869 
L 113.207066 222.409483 
L 113.553549 216.995319 
L 113.900032 231.154004 
L 114.246515 209.220079 
L 114.592998 222.230191 
L 114.939481 220.933019 
L 115.285964 226.401731 
L 115.632447 235.313391 
L 115.97893 208.461526 
L 116.325413 192.100035 
L 116.671896 197.463662 
L 117.018379 143.957965 
L 117.364862 226.142047 
L 117.711345 227.056602 
L 118.057828 215.003457 
L 118.404311 231.178228 
L 118.750794 201.831652 
L 119.097277 199.782057 
L 119.44376 185.876625 
L 119.790242 220.401676 
L 120.136725 193.574707 
L 120.483208 240.270696 
L 120.829691 230.226638 
L 121.176174 234.686585 
L 121.522657 230.710592 
L 121.86914 225.427436 
L 122.215623 153.686811 
L 122.562106 165.833988 
L 122.908589 184.977957 
L 123.255072 188.441182 
L 123.948038 225.419062 
L 124.294521 236.430988 
L 124.641004 239.454451 
L 124.987487 226.174367 
L 125.33397 221.691415 
L 125.680453 205.923669 
L 126.026936 224.116094 
L 126.373419 205.486348 
L 126.719902 232.856976 
L 127.066385 248.287948 
L 127.412868 242.792183 
L 128.105834 216.944072 
L 128.452317 239.563459 
L 128.7988 229.080421 
L 129.145283 247.960079 
L 129.838249 233.532198 
L 130.184732 242.894494 
L 130.877698 238.271355 
L 131.224181 236.576096 
L 131.570664 241.427538 
L 131.917147 243.193284 
L 132.26363 233.415811 
L 132.610112 238.012649 
L 133.303078 226.24348 
L 133.649561 234.514597 
L 133.996044 225.730251 
L 134.68901 234.897668 
L 135.035493 236.015142 
L 135.381976 252.991896 
L 136.074942 216.005542 
L 136.421425 237.428428 
L 136.767908 228.857437 
L 137.114391 241.48024 
L 137.460874 239.272781 
L 137.807357 217.677701 
L 138.15384 238.572761 
L 138.500323 234.524722 
L 138.846806 210.031673 
L 139.193289 238.547932 
L 139.539772 233.216815 
L 139.886255 223.889988 
L 140.232738 239.190661 
L 140.579221 240.919785 
L 140.925704 227.465679 
L 141.272187 242.990544 
L 141.61867 225.81634 
L 141.965153 240.515748 
L 142.311636 229.770585 
L 142.658119 243.249154 
L 143.004602 240.603533 
L 143.351085 227.727779 
L 143.697568 231.207175 
L 144.044051 230.874965 
L 144.390534 234.304813 
L 144.737017 222.167779 
L 145.0835 238.502132 
L 145.429982 247.48334 
L 145.776465 238.350167 
L 146.122948 248.160664 
L 146.469431 236.713102 
L 146.815914 228.978422 
L 147.162397 235.771172 
L 147.855363 226.661293 
L 148.201846 248.431122 
L 148.548329 249.865487 
L 148.894812 246.917582 
L 149.241295 246.081586 
L 149.587778 243.759291 
L 149.934261 240.168483 
L 150.280744 213.40208 
L 150.627227 229.921389 
L 150.97371 192.604593 
L 151.666676 218.106717 
L 152.013159 211.075543 
L 152.359642 228.355383 
L 152.706125 218.079529 
L 153.052608 222.65318 
L 153.399091 215.952946 
L 153.745574 240.838618 
L 154.092057 194.459798 
L 154.43854 220.002629 
L 154.785023 227.501473 
L 155.131506 229.498984 
L 155.477989 222.496994 
L 155.824472 245.969167 
L 156.170955 240.23834 
L 156.517438 229.567816 
L 156.863921 244.701212 
L 157.210404 226.722098 
L 157.556887 241.183937 
L 158.249852 221.533877 
L 158.596335 244.945984 
L 158.942818 214.111095 
L 159.289301 240.709591 
L 159.635784 230.958985 
L 159.982267 217.143821 
L 160.32875 242.428312 
L 160.675233 225.929867 
L 161.021716 222.07698 
L 161.368199 207.028897 
L 161.714682 228.257191 
L 162.061165 231.469652 
L 162.407648 229.472781 
L 162.754131 212.68409 
L 163.100614 250.793658 
L 163.447097 241.993309 
L 163.79358 248.168236 
L 164.140063 202.154545 
L 164.486546 213.343198 
L 164.833029 216.108208 
L 165.179512 234.25701 
L 165.525995 235.081009 
L 165.872478 220.851598 
L 166.218961 238.223382 
L 166.565444 246.637564 
L 166.911927 249.014671 
L 167.25841 245.35987 
L 167.604893 237.474329 
L 167.951376 249.437423 
L 168.297859 241.229112 
L 168.644342 245.027604 
L 168.990825 229.929795 
L 169.337308 231.853828 
L 169.683791 226.393017 
L 170.030274 240.475524 
L 170.376757 224.210734 
L 170.723239 201.548195 
L 171.069722 203.370318 
L 171.416205 224.398696 
L 171.762688 235.566819 
L 172.109171 219.461224 
L 172.455654 218.314905 
L 172.802137 236.5057 
L 173.14862 236.198256 
L 173.495103 246.377811 
L 173.841586 252.477404 
L 174.188069 250.355186 
L 174.534552 244.952542 
L 174.881035 227.999121 
L 175.227518 227.944779 
L 175.574001 235.860775 
L 175.920484 229.806563 
L 176.266967 243.842512 
L 176.61345 246.228355 
L 176.959933 242.058428 
L 177.306416 246.29201 
L 177.652899 246.130628 
L 177.999382 253.410959 
L 178.692348 234.144821 
L 179.038831 243.018347 
L 179.385314 242.366878 
L 179.731797 226.237311 
L 180.07828 247.305669 
L 180.424763 249.23474 
L 180.771246 248.996315 
L 181.117729 259.296565 
L 181.464212 246.653676 
L 181.810695 251.712724 
L 182.157178 241.208651 
L 182.503661 251.05728 
L 182.850144 245.687502 
L 183.196627 161.317753 
L 183.543109 218.07477 
L 183.889592 231.176235 
L 184.236075 228.982265 
L 184.582558 250.592965 
L 184.929041 236.169416 
L 185.275524 229.635367 
L 185.622007 250.529122 
L 185.96849 247.88411 
L 186.314973 250.118171 
L 186.661456 251.176069 
L 187.007939 231.89098 
L 187.354422 231.478346 
L 187.700905 247.252961 
L 188.047388 246.9002 
L 188.740354 250.415722 
L 189.086837 254.880056 
L 189.43332 237.710639 
L 189.779803 256.384488 
L 190.126286 253.838535 
L 190.472769 240.847824 
L 190.819252 240.818247 
L 191.165735 244.162384 
L 191.512218 241.425409 
L 191.858701 245.34503 
L 192.205184 255.683723 
L 192.551667 255.256845 
L 192.89815 219.873066 
L 193.244633 223.327971 
L 193.591116 240.555375 
L 193.937599 241.278641 
L 194.284082 236.261232 
L 195.323531 249.81369 
L 195.670014 244.428584 
L 196.016496 258.283622 
L 196.362979 240.765774 
L 196.709462 247.68388 
L 197.055945 244.476221 
L 197.402428 243.949951 
L 197.748911 245.436421 
L 198.095394 240.33595 
L 198.441877 222.178747 
L 198.78836 234.435977 
L 199.134843 235.379243 
L 199.481326 247.478482 
L 199.827809 216.55374 
L 200.520775 235.922584 
L 200.867258 237.601547 
L 201.560224 248.956225 
L 201.906707 247.69572 
L 202.25319 248.515308 
L 202.946156 241.697123 
L 203.292639 210.241529 
L 203.639122 253.298984 
L 203.985605 257.540406 
L 204.332088 248.320548 
L 204.678571 234.802959 
L 205.025054 230.222912 
L 205.371537 232.567547 
L 205.71802 232.247492 
L 206.064503 241.790085 
L 206.410986 257.014431 
L 206.757469 257.294237 
L 207.103952 251.881936 
L 207.450435 258.419312 
L 207.796918 248.302926 
L 208.143401 255.780444 
L 208.489884 257.652914 
L 209.182849 247.360733 
L 209.529332 244.405946 
L 209.875815 247.139987 
L 210.222298 251.371351 
L 210.568781 250.036433 
L 210.915264 243.736857 
L 211.261747 253.359128 
L 211.60823 252.791889 
L 211.954713 259.106492 
L 212.301196 258.605477 
L 212.647679 260.003466 
L 212.994162 249.817458 
L 213.340645 248.559694 
L 213.687128 257.632476 
L 214.033611 219.492466 
L 214.726577 254.825814 
L 215.07306 251.59729 
L 215.419543 243.491788 
L 215.766026 257.97889 
L 216.458992 250.144479 
L 217.151958 257.03347 
L 217.498441 258.364683 
L 217.844924 250.846692 
L 218.191407 246.934312 
L 218.53789 249.72332 
L 218.884373 250.657428 
L 219.230856 244.469824 
L 219.577339 240.618042 
L 219.923822 240.77092 
L 220.270305 253.726654 
L 220.616788 248.013886 
L 220.963271 231.612985 
L 221.309754 245.765207 
L 221.656236 226.477008 
L 222.002719 235.041424 
L 222.349202 255.458929 
L 222.695685 247.865958 
L 223.042168 251.038254 
L 223.388651 247.310885 
L 223.735134 258.665536 
L 224.4281 251.826017 
L 224.774583 242.524327 
L 225.121066 237.213563 
L 225.467549 252.279215 
L 225.814032 236.446539 
L 226.160515 250.201975 
L 226.506998 246.492183 
L 227.199964 254.116664 
L 227.546447 249.742578 
L 227.89293 261.127516 
L 228.239413 258.411744 
L 228.585896 258.58636 
L 228.932379 242.515947 
L 229.278862 246.750988 
L 229.625345 254.222488 
L 229.971828 253.313925 
L 230.318311 257.153923 
L 230.664794 252.178438 
L 231.011277 249.344934 
L 231.35776 259.052733 
L 231.704243 262.193012 
L 232.397209 240.553782 
L 232.743692 252.284692 
L 233.090175 247.421011 
L 233.436658 249.748325 
L 233.783141 237.222287 
L 234.129623 247.795873 
L 234.476106 253.909266 
L 234.822589 249.372711 
L 235.169072 253.109235 
L 235.515555 255.171277 
L 235.862038 246.928018 
L 236.208521 256.273501 
L 236.555004 255.59671 
L 236.901487 253.861542 
L 237.24797 254.985415 
L 237.594453 250.495088 
L 237.940936 248.581565 
L 238.287419 241.283709 
L 238.633902 254.122573 
L 238.980385 259.389531 
L 239.326868 249.862562 
L 239.673351 253.690757 
L 240.019834 247.806951 
L 240.366317 252.673634 
L 240.7128 253.865563 
L 241.059283 263.450712 
L 241.405766 258.644171 
L 241.752249 221.009693 
L 242.098732 206.805491 
L 242.445215 241.253045 
L 242.791698 236.811831 
L 243.138181 256.502392 
L 243.484664 239.852217 
L 243.831147 244.75381 
L 244.17763 229.69979 
L 244.524113 251.608591 
L 244.870596 231.542448 
L 245.217079 230.071155 
L 245.563562 248.192998 
L 245.910045 246.387668 
L 246.256528 253.101085 
L 246.603011 256.804551 
L 246.949493 233.46882 
L 247.295976 245.489091 
L 247.642459 242.594999 
L 247.988942 241.221046 
L 248.335425 252.449628 
L 248.681908 253.092877 
L 249.028391 257.946257 
L 249.374874 252.16936 
L 250.06784 259.013127 
L 250.760806 233.581357 
L 251.107289 244.942041 
L 251.453772 260.407688 
L 251.800255 254.343388 
L 252.146738 262.653704 
L 252.493221 252.007908 
L 252.839704 250.405876 
L 253.186187 250.612523 
L 253.53267 255.018706 
L 253.879153 250.832225 
L 254.225636 259.596189 
L 254.918602 259.295802 
L 255.265085 247.156339 
L 255.958051 255.464614 
L 256.304534 246.875542 
L 256.651017 257.464943 
L 256.9975 255.456557 
L 257.343983 254.829857 
L 257.690466 252.64602 
L 258.036949 246.719993 
L 258.383432 253.786284 
L 258.729915 249.809236 
L 259.076398 253.739951 
L 259.422881 259.793574 
L 259.769363 211.492799 
L 260.115846 245.995948 
L 260.462329 253.647704 
L 260.808812 245.152603 
L 261.501778 265.701102 
L 261.848261 251.689695 
L 262.194744 258.341924 
L 262.541227 257.227003 
L 262.88771 252.973574 
L 263.234193 254.117151 
L 263.580676 254.422017 
L 263.927159 245.686998 
L 264.273642 263.396996 
L 264.620125 253.751526 
L 264.966608 237.704765 
L 265.313091 240.483337 
L 266.006057 256.539226 
L 266.35254 259.781074 
L 266.699023 260.946037 
L 267.045506 262.727964 
L 267.391989 251.691843 
L 267.738472 258.79285 
L 268.084955 261.965104 
L 268.431438 263.395217 
L 268.777921 260.006425 
L 269.124404 255.1271 
L 269.470887 260.153712 
L 269.81737 251.033646 
L 270.163853 222.67671 
L 270.510336 254.973802 
L 270.856819 260.559432 
L 271.203302 250.14113 
L 271.549785 260.984662 
L 271.896268 264.3884 
L 272.24275 266.082934 
L 272.589233 262.994873 
L 272.935716 254.712578 
L 273.282199 251.140583 
L 273.628682 252.958652 
L 273.975165 258.887198 
L 274.321648 258.231709 
L 274.668131 254.304514 
L 275.014614 260.017088 
L 275.361097 248.966644 
L 275.70758 248.239621 
L 276.054063 257.232764 
L 276.400546 258.362116 
L 276.747029 245.373728 
L 277.093512 241.657418 
L 277.439995 252.721465 
L 277.786478 258.778656 
L 278.132961 252.593607 
L 278.479444 262.58502 
L 278.825927 260.39821 
L 279.17241 259.571359 
L 279.518893 265.527355 
L 279.865376 248.655167 
L 280.211859 255.29586 
L 280.558342 252.907381 
L 280.904825 257.093865 
L 281.597791 254.493319 
L 281.944274 261.79811 
L 282.290757 259.662591 
L 282.63724 258.689152 
L 282.983723 259.760286 
L 283.330206 247.438274 
L 283.676689 259.896726 
L 284.023172 260.256851 
L 284.369655 263.458318 
L 285.06262 260.852709 
L 285.409103 263.415928 
L 285.755586 255.372115 
L 286.102069 253.523671 
L 286.448552 258.383409 
L 286.795035 258.835959 
L 287.141518 261.603161 
L 287.488001 258.295431 
L 287.834484 258.195451 
L 288.180967 263.373467 
L 288.52745 256.651468 
L 288.873933 257.602945 
L 289.220416 260.813091 
L 289.566899 261.734332 
L 289.913382 248.038657 
L 290.259865 255.304807 
L 290.606348 257.360746 
L 290.952831 257.878122 
L 291.299314 259.495005 
L 291.645797 262.927074 
L 291.99228 261.307385 
L 292.338763 263.413255 
L 292.685246 259.513353 
L 293.031729 257.771119 
L 293.378212 255.243282 
L 294.071178 261.157312 
L 294.417661 261.60057 
L 294.764144 243.278161 
L 295.110627 265.67285 
L 295.45711 265.244741 
L 296.150076 259.327939 
L 296.496559 260.269024 
L 296.843042 264.681309 
L 297.189525 252.934952 
L 297.536008 262.499693 
L 297.88249 258.808559 
L 298.228973 260.902012 
L 298.575456 255.328435 
L 298.921939 245.562839 
L 299.268422 262.475977 
L 299.614905 250.793492 
L 299.961388 257.664833 
L 300.307871 258.761542 
L 300.654354 254.676244 
L 301.000837 253.220043 
L 301.34732 253.171485 
L 301.693803 259.297131 
L 302.040286 259.258809 
L 302.386769 266.027423 
L 302.733252 249.03787 
L 303.079735 257.641896 
L 303.426218 256.662984 
L 303.772701 254.93342 
L 304.119184 246.206407 
L 304.465667 254.569128 
L 304.81215 252.292825 
L 305.505116 265.708551 
L 305.851599 258.290984 
L 306.198082 233.623014 
L 306.544565 257.446655 
L 306.891048 251.873305 
L 307.237531 254.53231 
L 307.584014 246.710846 
L 307.930497 255.391577 
L 308.27698 250.227141 
L 308.623463 254.555627 
L 308.969946 253.563483 
L 309.316429 255.053621 
L 309.662912 255.67367 
L 310.009395 257.373041 
L 310.355877 256.828235 
L 310.70236 256.042169 
L 311.048843 265.554405 
L 311.741809 261.218869 
L 312.088292 256.746313 
L 312.434775 256.300405 
L 312.781258 258.257478 
L 313.127741 263.498699 
L 313.474224 241.873014 
L 313.820707 246.684879 
L 314.16719 257.009641 
L 314.513673 246.005876 
L 314.860156 263.310506 
L 315.206639 265.088089 
L 315.553122 247.936166 
L 315.899605 262.558734 
L 316.246088 259.262473 
L 316.592571 263.899276 
L 316.939054 266.319208 
L 317.285537 255.8026 
L 317.978503 266.657459 
L 318.324986 257.698009 
L 318.671469 255.489836 
L 319.017952 256.74529 
L 319.364435 260.073671 
L 319.710918 255.751987 
L 320.057401 262.235535 
L 320.403884 256.794262 
L 320.750367 262.776887 
L 321.09685 258.29592 
L 321.443333 263.214955 
L 322.136299 253.43532 
L 322.482782 264.932319 
L 322.829265 262.88642 
L 323.175747 253.629337 
L 323.868713 258.586616 
L 324.215196 251.461668 
L 324.561679 258.926014 
L 324.908162 258.100767 
L 325.254645 260.140586 
L 325.601128 259.859182 
L 325.947611 260.951197 
L 326.294094 261.370232 
L 326.640577 259.503104 
L 326.98706 263.989842 
L 327.333543 262.79536 
L 327.680026 258.430128 
L 328.026509 265.321841 
L 328.372992 255.702204 
L 328.719475 263.703838 
L 329.065958 266.446368 
L 329.412441 261.424842 
L 329.758924 265.810785 
L 330.105407 253.713726 
L 330.45189 263.075017 
L 330.798373 264.222562 
L 331.144856 261.125506 
L 331.491339 266.98596 
L 332.184305 259.736431 
L 332.530788 260.828195 
L 332.877271 242.826155 
L 333.223754 253.962515 
L 333.91672 263.740832 
L 334.263203 262.946985 
L 334.609686 261.035885 
L 334.956169 261.724995 
L 335.302652 263.787913 
L 335.649135 263.24282 
L 335.995617 261.46689 
L 336.3421 267.057803 
L 337.035066 260.398451 
L 337.381549 266.765655 
L 338.074515 247.389847 
L 338.420998 259.940157 
L 338.767481 261.40775 
L 339.113964 258.381499 
L 339.460447 259.455443 
L 339.80693 262.671719 
L 340.153413 267.314541 
L 340.499896 251.376739 
L 340.846379 259.40202 
L 341.192862 254.727435 
L 341.539345 252.739151 
L 341.885828 261.059913 
L 342.232311 263.220515 
L 342.578794 256.177298 
L 342.925277 261.945959 
L 343.27176 259.760065 
L 343.618243 260.250263 
L 343.964726 257.960376 
L 344.657692 265.297992 
L 345.004175 264.887469 
L 345.350658 257.146221 
L 345.697141 265.625287 
L 346.043624 267.039791 
L 346.390107 265.957699 
L 346.73659 260.232121 
L 347.083073 263.152997 
L 347.429556 251.889311 
L 347.776039 251.542183 
L 348.122522 254.677376 
L 348.469004 264.443029 
L 348.815487 266.880129 
L 349.16197 266.723652 
L 349.508453 250.930153 
L 349.854936 257.734683 
L 350.201419 254.351216 
L 350.894385 263.549168 
L 351.240868 263.431442 
L 351.587351 267.20005 
L 351.933834 258.02455 
L 352.280317 256.529144 
L 352.6268 263.261446 
L 352.973283 262.680321 
L 353.319766 256.65829 
L 353.666249 262.616747 
L 354.012732 227.876429 
L 354.359215 266.157337 
L 354.705698 264.40079 
L 355.052181 270.035718 
L 355.398664 266.034248 
L 355.745147 257.136126 
L 356.09163 251.203599 
L 356.438113 263.614813 
L 356.784596 265.185725 
L 357.131079 255.373742 
L 357.477562 261.323316 
L 357.824045 263.083733 
L 358.170528 262.678988 
L 358.517011 263.441562 
L 358.863494 269.279826 
L 359.55646 261.927105 
L 359.902943 262.338971 
L 360.249426 252.240462 
L 360.595909 266.01109 
L 360.942392 266.549133 
L 361.288874 246.955035 
L 361.635357 265.137333 
L 361.98184 266.544744 
L 362.328323 260.932216 
L 362.674806 264.023167 
L 363.021289 265.840679 
L 363.367772 266.75128 
L 363.714255 270.519895 
L 364.060738 271.814437 
L 364.407221 269.217386 
L 364.753704 256.0835 
L 365.100187 255.239139 
L 365.793153 268.749399 
L 366.139636 263.917013 
L 366.486119 263.169513 
L 366.832602 266.327965 
L 367.179085 262.183043 
L 367.525568 219.004446 
L 367.872051 204.178703 
L 368.218534 241.610602 
L 368.565017 264.696504 
L 368.9115 260.059488 
L 369.257983 243.532746 
L 369.604466 265.423456 
L 369.950949 253.340831 
L 370.297432 257.935016 
L 370.643915 266.984292 
L 370.990398 262.138605 
L 370.990398 262.138605 
" clip-path="url(#pf2bc2051f5)" style="fill: none; stroke: #1f77b4; stroke-width: 1.5; stroke-linecap: square"/>
   </g>
   <g id="patch_3">
    <path d="M 30.103125 283.910437 
L 30.103125 17.798437 
" style="fill: none; stroke: #000000; stroke-width: 0.8; stroke-linejoin: miter; stroke-linecap: square"/>
   </g>
   <g id="patch_4">
    <path d="M 387.223125 283.910437 
L 387.223125 17.798437 
" style="fill: none; stroke: #000000; stroke-width: 0.8; stroke-linejoin: miter; stroke-linecap: square"/>
   </g>
   <g id="patch_5">
    <path d="M 30.103125 283.910437 
L 387.223125 283.910437 
" style="fill: none; stroke: #000000; stroke-width: 0.8; stroke-linejoin: miter; stroke-linecap: square"/>
   </g>
   <g id="patch_6">
    <path d="M 30.103125 17.798437 
L 387.223125 17.798437 
" style="fill: none; stroke: #000000; stroke-width: 0.8; stroke-linejoin: miter; stroke-linecap: square"/>
   </g>
  </g>
 </g>
 <defs>
  <clipPath id="pf2bc2051f5">
   <rect x="30.103125" y="17.798437" width="357.12" height="266.112"/>
  </clipPath>
 </defs>
</svg>
